<?xml version="1.0" encoding="UTF-8" standalone="no"?>
<svg
   xmlns:dc="http://purl.org/dc/elements/1.1/"
   xmlns:cc="http://creativecommons.org/ns#"
   xmlns:rdf="http://www.w3.org/1999/02/22-rdf-syntax-ns#"
   xmlns:svg="http://www.w3.org/2000/svg"
   xmlns="http://www.w3.org/2000/svg"
   xmlns:sodipodi="http://sodipodi.sourceforge.net/DTD/sodipodi-0.dtd"
   xmlns:inkscape="http://www.inkscape.org/namespaces/inkscape"
   enable-background="new 0 0 91 91"
   height="91px"
   id="Layer_1"
   version="1.1"
   viewBox="0 0 91 91"
   width="91px"
   xml:space="preserve"
   sodipodi:docname="3592821-garbage-can-general-office-recycle-bin-rubbish-bin-trash-bin-trash-can_107760.svg"
   inkscape:version="0.92.4 (5da689c313, 2019-01-14)"><metadata
     id="metadata19"><rdf:RDF><cc:Work
         rdf:about=""><dc:format>image/svg+xml</dc:format><dc:type
           rdf:resource="http://purl.org/dc/dcmitype/StillImage" /></cc:Work></rdf:RDF></metadata><defs
     id="defs17" /><sodipodi:namedview
     pagecolor="#ffffff"
     bordercolor="#666666"
     borderopacity="1"
     objecttolerance="10"
     gridtolerance="10"
     guidetolerance="10"
     inkscape:pageopacity="0"
     inkscape:pageshadow="2"
     inkscape:window-width="1920"
     inkscape:window-height="1043"
     id="namedview15"
     showgrid="false"
     inkscape:zoom="0.35355339"
     inkscape:cx="110.13089"
     inkscape:cy="-316.08005"
     inkscape:window-x="0"
     inkscape:window-y="0"
     inkscape:window-maximized="1"
     inkscape:current-layer="Layer_1" /><g
     id="g12"><g
       id="g10"><path
         d="M16.142,90.613H68.39c3.418,0,6.197-2.779,6.197-6.195V29.52l-58.445-0.002V90.613z"
         fill="#647F94"
         id="path2" /><path
         d="M58.431,42.701c0-1.547,1.254-2.801,2.801-2.801s2.803,1.254,2.803,2.801v37.295    c0,1.549-1.256,2.801-2.803,2.801s-2.801-1.252-2.801-2.801V42.701z M42.56,42.701c0-1.547,1.254-2.801,2.803-2.801    c1.545,0,2.799,1.254,2.799,2.801v37.295c0,1.549-1.254,2.801-2.799,2.801c-1.549,0-2.803-1.252-2.803-2.801V42.701z     M26.688,42.701c0-1.547,1.256-2.801,2.801-2.801c1.547,0,2.803,1.254,2.803,2.801v37.295c0,1.549-1.256,2.801-2.803,2.801    c-1.545,0-2.801-1.252-2.801-2.801V42.701z"
         fill="#95AEC2"
         id="path4" /><rect
         fill="#6EC4A7"
         height="9.438"
         width="66.611"
         x="12.056"
         y="14.479"
         id="rect6" /><rect
         fill="#647F94"
         height="7.887"
         width="18.205"
         x="36.259"
         y="0.99"
         id="rect8" /></g></g><path
     style="fill:#b3b3b3;fill-opacity:1;stroke-width:0.38559321"
     d="M 16.426271,60.113983 V 29.844915 h 28.919492 28.919491 v 28.284079 28.284078 l -0.867585,1.271023 c -0.477171,0.699061 -1.472187,1.592303 -2.211145,1.984988 -1.270403,0.675092 -2.797838,0.713968 -28.051906,0.713968 H 16.426271 Z m 15.134534,21.873443 c 0.626359,-0.550018 0.674788,-2.027292 0.674788,-20.583629 0,-19.476961 -0.01983,-20.010918 -0.771186,-20.762272 -0.97435,-0.974349 -2.729343,-0.989733 -3.909613,-0.03427 l -0.910302,0.736917 -0.106794,19.558544 c -0.09458,17.321374 -0.03687,19.665252 0.50447,20.491451 1.100006,1.678819 2.998542,1.928082 4.518637,0.593259 z m 15.90572,-0.138185 c 0.74809,-0.719151 0.774385,-1.318432 0.877988,-20.009584 0.09293,-16.765228 0.02941,-19.417899 -0.489005,-20.420391 -1.123693,-2.172983 -4.10962,-2.042747 -5.055262,0.220492 -0.836745,2.002613 -0.634711,39.024103 0.21857,40.051686 1.230062,1.481326 3.005397,1.544313 4.447709,0.157797 z M 63.382414,81.642721 64.260167,80.676574 64.1536,61.010377 64.047034,41.344178 63.136733,40.607259 c -1.183563,-0.958132 -2.777547,-0.937656 -3.836907,0.04929 l -0.843894,0.786207 V 61.11834 c 0,13.184536 0.135525,19.928812 0.4108,20.44317 0.901671,1.684784 3.024142,1.722954 4.515682,0.08121 z"
     id="path3724"
     inkscape:connector-curvature="0" /><path
     style="fill:#b3b3b3;fill-opacity:1;stroke-width:0.06816389"
     d="M 16.188084,60.074833 V 29.536557 h 29.174635 29.174636 l -0.01992,27.99832 C 74.500115,81.883842 74.484505,85.57762 74.39766,85.874016 74.3095,86.174897 74.295793,82.909891 74.280677,58.012024 L 74.263559,29.809212 H 45.328067 16.392576 v 30.298852 30.298851 l 21.250094,-0.0026 c 28.210728,-0.0034 31.526007,-0.05445 33.05632,-0.508964 0.810492,-0.240723 2.18623,-1.407971 2.878304,-2.442104 0.196484,-0.293597 0.374026,-0.517032 0.394535,-0.496522 0.08538,0.08538 -0.596727,1.125608 -1.066029,1.625732 -0.854894,0.91104 -1.860271,1.511418 -3.07999,1.839269 l -0.572133,0.153785 -26.532797,0.01878 -26.532796,0.01878 z"
     id="path3726"
     inkscape:connector-curvature="0" /><path
     style="fill:#b3b3b3;fill-opacity:1;stroke-width:0.06816389"
     d="M 16.188084,60.074563 V 29.536557 H 45.36262 74.537156 l -0.0365,26.907697 c -0.02008,14.799234 -0.05859,27.321794 -0.08559,27.827911 -0.027,0.506117 -0.06452,-6.564183 -0.08338,-15.711778 l -0.03429,-16.631991 -0.01684,17.290909 c -0.0093,9.509999 -0.04223,17.301132 -0.07327,17.313629 -0.03104,0.0125 -0.233564,0.283448 -0.450052,0.602114 -0.216488,0.318666 -0.299275,0.472035 -0.18397,0.34082 0.299903,-0.341285 0.262055,-0.161215 -0.06568,0.312478 -0.366914,0.530326 -1.083219,1.260554 -1.606183,1.6374 -0.435432,0.313772 -1.495529,0.844841 -1.686434,0.844841 -0.06008,0 -0.109243,0.03248 -0.109243,0.07219 0,0.0397 -0.03202,0.0524 -0.07115,0.02821 -0.03913,-0.02419 -0.120532,-0.003 -0.180887,0.0471 -0.06036,0.05009 -0.128027,0.08345 -0.150382,0.07414 -0.02236,-0.0093 -0.132668,-0.0031 -0.245139,0.01384 -0.11247,0.01692 -12.14425,0.04781 -26.737288,0.06864 L 16.188084,90.61257 Z M 38.631047,90.355793 16.46074,90.338544 V 60.10804 29.877535 l 28.918532,-0.0172 28.918533,-0.0172 -28.952615,-0.01696 -28.952614,-0.01696 v 30.298852 30.298851 l 22.204389,-0.01694 22.204388,-0.01694 z m 26.723593,-0.0677 c -0.307452,-0.0126 -0.828906,-0.01266 -1.158786,-1.37e-4 -0.329879,0.01252 -0.07833,0.02283 0.559005,0.02291 0.637333,6.8e-5 0.907235,-0.01017 0.599781,-0.02277 z m 2.350109,-0.06705 c -0.139596,-0.01465 -0.384986,-0.01485 -0.545311,-4.77e-4 -0.160324,0.0144 -0.04611,0.02638 0.253813,0.02663 0.299921,2.72e-4 0.431095,-0.01153 0.291498,-0.02618 z m 1.260168,-0.0666 c -0.08384,-0.01618 -0.237206,-0.0166 -0.340819,-9.27e-4 -0.103613,0.01567 -0.03502,0.0289 0.152431,0.02942 0.187451,5.46e-4 0.272226,-0.01231 0.188388,-0.02849 z m 0.714784,-0.06717 c -0.06561,-0.01714 -0.172966,-0.01714 -0.238574,0 -0.06561,0.01715 -0.01193,0.03117 0.119287,0.03117 0.131216,0 0.184895,-0.01403 0.119287,-0.03117 z m 0.443065,-0.06632 c -0.04686,-0.01891 -0.123547,-0.01891 -0.17041,0 -0.04686,0.01891 -0.0085,0.03438 0.08521,0.03438 0.09373,0 0.132068,-0.01547 0.08521,-0.03438 z m 0.373482,-0.0642 c -0.02265,-0.02265 -0.08144,-0.02507 -0.130648,-0.0054 -0.05438,0.02176 -0.03822,0.03791 0.04118,0.04118 0.07185,0.003 0.112115,-0.01315 0.08946,-0.0358 z m 0.495608,-0.163309 c 0.312756,-0.171227 0.229996,-0.172075 -0.145925,-0.0015 -0.163427,0.07416 -0.25113,0.134218 -0.194895,0.13347 0.05624,-7.5e-4 0.209604,-0.06014 0.34082,-0.131974 z m 1.099317,-0.732762 c 0.08479,-0.108112 0.08238,-0.110523 -0.02574,-0.02574 -0.06561,0.05145 -0.119287,0.105133 -0.119287,0.119287 0,0.0561 0.05598,0.01999 0.145023,-0.09355 z m 0.9456,-0.883282 c 0,-0.05118 -0.0612,0.0029 -0.343668,0.303889 l -0.303889,0.323779 0.323778,-0.303889 C 72.891072,88.33404 73.036773,88.18834 73.036773,88.1774 Z m 0.28135,-0.343668 c 0.08479,-0.108112 0.08238,-0.110523 -0.02574,-0.02574 -0.06561,0.05145 -0.119287,0.105133 -0.119287,0.119287 0,0.0561 0.05598,0.01999 0.145023,-0.09355 z M 30.595071,82.616353 c 0.515585,-0.23734 1.045436,-0.627777 1.16233,-0.856498 0.122891,-0.240452 0.232278,-0.936797 0.322764,-2.054671 0.107601,-1.329322 0.162056,-31.791331 0.06227,-34.831751 -0.100004,-3.046927 -0.192056,-3.682338 -0.603016,-4.162454 -0.737456,-0.861551 -2.24735,-1.070702 -3.422649,-0.474107 -0.168706,0.08564 -0.570134,0.365109 -0.892062,0.621049 l -0.585325,0.465345 -0.04512,5.711548 c -0.02481,3.141352 -0.06418,10.803392 -0.08747,17.026756 -0.05209,13.914569 0.0073,16.199672 0.446232,17.177301 0.262443,0.584504 0.981061,1.220452 1.66045,1.469436 0.535708,0.196327 1.447241,0.154028 1.9816,-0.09195 z m 15.798264,-0.03252 c 0.481776,-0.239216 1.160612,-0.749066 1.313627,-0.986618 0.373357,-0.579627 0.50263,-2.811806 0.587235,-10.139867 0.101197,-8.765215 0.105098,-25.541702 0.0063,-27.218091 -0.12988,-2.20443 -0.352719,-2.986235 -1.032379,-3.621977 -0.865442,-0.80952 -2.058832,-0.993028 -3.110797,-0.478349 -0.60026,0.29368 -1.176375,0.964792 -1.372624,1.598959 -0.122426,0.395612 -0.283244,2.120085 -0.352797,3.783096 -0.03606,0.862273 -0.101776,4.052041 -0.146027,7.088373 -0.110722,7.597318 0.03395,20.086273 0.282287,24.369265 0.195904,3.378673 0.294539,4.405777 0.453268,4.720009 0.05198,0.10291 0.25226,0.3118 0.445058,0.464198 0.683222,0.540055 1.100412,0.683907 1.904363,0.656645 0.499576,-0.01694 0.653391,-0.05239 1.022458,-0.235643 z m 15.771296,-0.04346 c 0.456936,-0.221478 0.675191,-0.392799 1.34672,-1.057123 l 0.801408,-0.79281 -0.03426,-1.089065 c -0.01885,-0.598987 -0.06517,-8.941547 -0.102934,-18.539024 -0.03777,-9.597476 -0.08425,-17.966765 -0.103291,-18.59842 -0.03946,-1.308973 0.05775,-1.105088 -0.863562,-1.811112 -0.288031,-0.220725 -0.702127,-0.469493 -0.920213,-0.552818 -0.54878,-0.209675 -1.277932,-0.251727 -1.8201,-0.104969 -0.510791,0.138265 -0.817705,0.332493 -1.513902,0.958059 l -0.521867,0.468922 0.03827,16.636559 c 0.04433,19.274241 0.115637,22.962036 0.456726,23.621572 0.230117,0.444959 0.827693,0.927584 1.362064,1.100057 0.09397,0.03033 0.431578,0.04824 0.750244,0.03982 0.517142,-0.01368 0.637983,-0.04373 1.124704,-0.279643 z M 74.311932,51.196429 c -0.0163,-0.08479 -0.03026,-0.03147 -0.03102,0.118492 -7.56e-4,0.149961 0.01258,0.219335 0.02965,0.154164 0.01706,-0.06517 0.01768,-0.187866 0.0014,-0.272656 z"
     id="path3730"
     inkscape:connector-curvature="0" /><path
     style="fill:#b3b3b3;fill-opacity:1;stroke-width:0.06816389"
     d=""
     id="path3732"
     inkscape:connector-curvature="0" /><path
     style="fill:#b3b3b3;fill-opacity:1;stroke-width:0.06816389"
     d="m 26.690072,41.761282 -0.0047,-0.419677 0.340819,-0.28535 c 0.187451,-0.156943 0.34082,-0.270239 0.34082,-0.251771 0,0.01847 -0.107306,0.193036 -0.238458,0.387927 -0.131153,0.194892 -0.282385,0.497043 -0.336072,0.671448 l -0.09761,0.3171 z"
     id="path3734"
     inkscape:connector-curvature="0" /><path
     style="fill:#ffffff;fill-opacity:1;stroke-width:0.13632779"
     d="m 28.143887,82.397438 c -0.388706,-0.207699 -0.752149,-0.55168 -0.991966,-0.938847 l -0.378492,-0.611044 0.0053,-19.402792 c 0.0051,-18.644991 0.01526,-19.425282 0.260045,-19.978654 0.395053,-0.893083 1.490665,-1.573064 2.522803,-1.565754 0.57296,0.0041 1.430291,0.419484 1.901613,0.92144 0.293848,0.312946 0.419362,0.62379 0.516131,1.278223 0.153199,1.036065 0.254383,27.01914 0.132373,33.992372 -0.09508,5.434293 -0.08516,5.37422 -1.010375,6.118342 -0.440266,0.354094 -0.657219,0.424711 -1.431442,0.465933 -0.761549,0.04055 -1.014028,-0.0057 -1.526003,-0.279219 z"
     id="path3738"
     inkscape:connector-curvature="0" /><path
     style="fill:#ffffff;fill-opacity:1"
     d="m 45.048533,82.702964 c -0.765598,-0.101233 -1.365896,-0.413895 -1.811571,-0.943549 -0.282261,-0.33545 -0.365178,-0.62551 -0.459304,-1.606749 -0.143303,-1.4939 -0.153393,-37.868216 -0.01065,-38.378305 0.129004,-0.460982 0.838635,-1.284915 1.313381,-1.524932 1.615323,-0.816659 3.584635,0.104014 3.959299,1.851012 0.195779,0.912886 0.199253,35.455794 0.0038,37.517206 -0.160484,1.692365 -0.339923,2.131709 -1.067211,2.613005 -0.678769,0.449188 -1.177842,0.571466 -1.927722,0.472312 z"
     id="path3740"
     inkscape:connector-curvature="0" /><path
     style="fill:#ffffff;fill-opacity:1;stroke-width:0.13632779"
     d="M 60.751347,82.68492 C 60.040078,82.557005 59.336292,82.142158 59.025276,81.667488 58.658501,81.107717 58.573329,77.682347 58.4714,59.392227 58.40415,47.324473 58.42027,42.537069 58.52953,42.133271 c 0.438181,-1.619425 1.883556,-2.514293 3.401047,-2.105675 0.719078,0.193627 1.490875,0.863023 1.813267,1.572685 0.236298,0.520148 0.248405,1.46621 0.251255,19.633271 0.0019,12.070444 -0.04613,19.258088 -0.130649,19.552777 -0.216261,0.754057 -1.229649,1.652233 -2.14501,1.901141 -0.208856,0.05679 -0.6445,0.05564 -0.968096,-0.0025 z"
     id="path3742"
     inkscape:connector-curvature="0" /><path
     style="fill:#ffffff;fill-opacity:1;stroke-width:0.13632779"
     d="m 42.659354,59.324063 c 1.2e-5,-5.548541 0.01688,-7.798533 0.03748,-4.999983 0.0206,2.798551 0.02059,7.338266 -2.2e-5,10.088257 -0.02062,2.749991 -0.03747,0.460267 -0.03746,-5.088274 z"
     id="path3744"
     inkscape:connector-curvature="0" /><path
     style="fill:#ffffff;fill-opacity:1;stroke-width:0.01704097"
     d="m 42.299888,64.712426 c -0.02288,-1.937702 -0.01792,-11.028955 0.0069,-12.716827 0.05192,-3.525509 0.106914,-5.585832 0.200596,-7.515069 0.01434,-0.295235 0.02855,-0.552128 0.03159,-0.570873 0.003,-0.01875 0.0066,4.936983 0.0078,11.012729 l 0.0023,11.046812 h -0.117229 -0.117228 z"
     id="path3746"
     inkscape:connector-curvature="0" /><path
     style="fill:#ffffff;fill-opacity:1;stroke-width:0.01704097"
     d="m 42.679492,65.838819 c -0.01666,-0.197118 -0.0127,-10.4467 0.006,-15.462112 0.01644,-4.413315 0.0408,-7.575939 0.06141,-7.970916 l 0.01089,-0.208752 h 2.645306 2.645306 l 0.01124,0.268395 c 0.0726,1.734221 0.112562,7.777009 0.112869,17.066536 l 2.14e-4,6.437228 H 45.43163 42.690534 Z"
     id="path3748"
     inkscape:connector-curvature="0" /><path
     style="fill:#ffffff;fill-opacity:1;stroke-width:0.01704097"
     d="M 42.566225,54.692336 V 43.415475 l 0.03544,-0.383425 c 0.05245,-0.567397 0.08795,-0.822285 0.115819,-0.831517 0.01969,-0.0065 0.02163,0.05894 0.01213,0.407612 -0.04193,1.537702 -0.08677,13.207736 -0.0741,19.284 l 0.0085,4.077053 h -0.0489 -0.0489 z"
     id="path3750"
     inkscape:connector-curvature="0" /><path
     style="fill:#ffffff;fill-opacity:1;stroke-width:0.00390625"
     d="m 42.564057,57.043102 c 0,-1.499609 4.44e-4,-2.11367 9.87e-4,-1.364579 5.43e-4,0.749091 5.43e-4,1.976044 0,2.726562 -5.43e-4,0.750519 -9.87e-4,0.137626 -9.87e-4,-1.361983 z"
     id="path3752"
     inkscape:connector-curvature="0" /><path
     style="fill:#ffffff;fill-opacity:1;stroke-width:0.00390625"
     d="m 42.564048,57.043102 c 0,-0.840039 4.48e-4,-1.184274 9.96e-4,-0.764966 5.48e-4,0.419307 5.48e-4,1.106612 0,1.527343 -5.48e-4,0.420732 -9.96e-4,0.07766 -9.96e-4,-0.762377 z"
     id="path3754"
     inkscape:connector-curvature="0" /><path
     style="fill:#ffffff;fill-opacity:1;stroke-width:0.00390625"
     d="m 42.661102,57.723766 c 0.0014,-1.12417 0.0037,-2.350244 0.0052,-2.724609 l 0.0026,-0.680664 h 2.515001 2.515 v 2.724609 2.724609 h -2.520158 -2.520158 z"
     id="path3756"
     inkscape:connector-curvature="0" /><path
     style="fill:#ffffff;fill-opacity:1;stroke-width:0.0625"
     d="m 42.649276,67.718786 c 3.2e-5,-0.9625 0.0087,-1.347517 0.01928,-0.855593 0.01057,0.491923 0.01055,1.279423 -5.7e-5,1.75 -0.0106,0.470576 -0.01925,0.06809 -0.01922,-0.894407 z"
     id="path3758"
     inkscape:connector-curvature="0" /><path
     style="fill:#ffffff;fill-opacity:1;stroke-width:0.0625"
     d="m 42.496841,74.765661 c 2.2e-5,-0.300781 -0.0271,-1.7 -0.06027,-3.109375 -0.129719,-5.511589 -0.129617,-5.65625 0.004,-5.65625 0.1156,0 0.118747,0.123394 0.118747,4.65625 0,2.560938 -0.01406,4.65625 -0.03125,4.65625 -0.01719,0 -0.03123,-0.246093 -0.03121,-0.546875 z"
     id="path3760"
     inkscape:connector-curvature="0" /><path
     style="fill:#ffffff;fill-opacity:1;stroke-width:0.0625"
     d="m 44.62834,82.592049 c -0.496949,-0.138677 -0.906424,-0.383912 -1.253124,-0.750497 -0.381955,-0.403861 -0.48262,-0.721205 -0.565003,-1.781163 -0.0333,-0.428506 -0.08229,-5.180665 -0.108858,-10.560353 -0.03526,-7.139655 -0.05698,-8.93729 -0.08043,-6.65625 -0.01767,1.71875 -0.03548,-1.923437 -0.03957,-8.09375 -0.0041,-6.170312 0.01311,-11.401562 0.03822,-11.625 0.0337,-0.299813 0.05147,-0.05419 0.06782,0.9375 l 0.02215,1.34375 0.03425,-1.849331 0.03425,-1.849331 0.230394,-0.346837 c 0.337028,-0.507363 0.807357,-0.949862 1.219765,-1.147589 0.509805,-0.244424 1.323576,-0.284571 1.944611,-0.09594 0.764666,0.23226 1.368111,0.780456 1.708018,1.551637 0.112156,0.254461 0.139723,0.484505 0.181982,1.518638 0.164561,4.027004 0.107963,35.130012 -0.06676,36.6875 -0.142863,1.273495 -0.379919,1.866683 -0.892351,2.232946 -0.59838,0.427694 -0.906341,0.539241 -1.544409,0.559405 -0.391417,0.01237 -0.708662,-0.0133 -0.930961,-0.07534 z M 42.668648,51.551396 c -0.0096,-1.04231 -0.01751,-0.20761 -0.01751,1.85489 -8e-6,2.0625 0.0079,2.9153 0.0175,1.89511 0.0096,-1.020189 0.0096,-2.707689 1.5e-5,-3.75 z"
     id="path3762"
     inkscape:connector-curvature="0" /><path
     style="fill:#ffffff;fill-opacity:1;stroke-width:0.015625"
     d="m 42.597615,77.422357 c -0.02239,-0.456351 -0.0276,-1.08852 -0.03537,-4.292969 -0.005,-2.066797 -0.004,-4.522461 0.0022,-5.457031 l 0.01129,-1.699219 h 0.04273 0.04273 l -0.0014,1.417969 c -7.5e-4,0.779882 0.0036,2.029687 0.0096,2.777343 0.006,0.747657 0.018,2.670703 0.02663,4.273438 0.0086,1.602734 0.0202,3.049414 0.0257,3.214844 l 0.01,0.300781 h -0.05393 -0.05393 z"
     id="path3764"
     inkscape:connector-curvature="0" /><path
     style="fill:#ffffff;fill-opacity:1;stroke-width:0.015625"
     d="m 42.323971,66.555169 -0.0029,-0.582031 h 0.117187 0.117188 l -0.0023,0.300781 -0.0023,0.300781 -0.012,-0.220121 c -0.01405,-0.257693 -0.03296,-0.344003 -0.07854,-0.35847 -0.04163,-0.01321 -0.08517,0.02625 -0.100533,0.09111 -0.0065,0.02749 -0.01656,0.274982 -0.02233,0.549982 l -0.01049,0.5 z"
     id="path3766"
     inkscape:connector-curvature="0" /><path
     style="fill:#ffffff;fill-opacity:1;stroke-width:0.015625"
     d="M 44.836724,82.799274 C 44.267619,82.733414 43.593826,82.341923 43.123328,81.803757 43.027078,81.69366 43.002812,81.654341 42.97536,81.56396 42.9573,81.5045 42.94578,81.452593 42.94977,81.44861 c 0.004,-0.004 0.03641,0.03786 0.07207,0.09299 0.263732,0.407803 0.703528,0.787934 1.150801,0.994676 0.354041,0.163648 0.678627,0.240453 1.117188,0.264354 l 0.210937,0.0115 -0.273437,3.52e-4 c -0.150391,1.93e-4 -0.32616,-0.0058 -0.390598,-0.01321 z"
     id="path3768"
     inkscape:connector-curvature="0" /><path
     style="fill:#ffffff;fill-opacity:1;stroke-width:0.015625"
     d="m 45.209461,82.794253 c -0.0031,-0.0028 -0.05128,-0.0095 -0.107139,-0.01483 -0.14686,-0.01401 -0.235017,-0.02737 -0.328125,-0.04971 -0.02148,-0.0052 -0.05313,-0.01167 -0.07031,-0.01448 -0.01719,-0.0028 -0.03125,-0.0062 -0.03125,-0.0076 0,-0.003 -0.03012,-0.01063 -0.09226,-0.02347 -0.02496,-0.0052 -0.05836,-0.01632 -0.07422,-0.02481 -0.01586,-0.0085 -0.02883,-0.01081 -0.02883,-0.0052 0,0.0057 -0.01055,0.0015 -0.02344,-0.0092 -0.01289,-0.0107 -0.02344,-0.01483 -0.02344,-0.0092 0,0.0057 -0.01582,0.0015 -0.03516,-0.0093 -0.01934,-0.01074 -0.03867,-0.02037 -0.04297,-0.02139 -0.02576,-0.0061 -0.111595,-0.04449 -0.173464,-0.0775 -0.03954,-0.0211 -0.07646,-0.0338 -0.08203,-0.02823 -0.0056,0.0056 -0.01013,0.0024 -0.01013,-0.0071 0,-0.0095 -0.02461,-0.02612 -0.05469,-0.03699 -0.03008,-0.01088 -0.05469,-0.02581 -0.05469,-0.03318 0,-0.0074 -0.0064,-0.0094 -0.01429,-0.0046 -0.0079,0.0049 -0.01665,0.0035 -0.01953,-0.003 -0.0029,-0.0065 -0.02985,-0.02528 -0.05993,-0.04172 -0.112328,-0.06143 -0.34293,-0.246308 -0.492438,-0.394789 -0.20028,-0.198906 -0.226312,-0.227864 -0.226312,-0.251742 0,-0.01092 -0.01055,-0.0239 -0.02344,-0.02885 -0.01289,-0.0049 -0.02344,-0.01804 -0.02344,-0.02909 0,-0.01105 -0.01055,-0.02414 -0.02344,-0.02909 -0.01289,-0.0049 -0.02344,-0.01976 -0.02344,-0.03292 0,-0.01316 -0.007,-0.02393 -0.01563,-0.02393 -0.0086,0 -0.01563,-0.01055 -0.01563,-0.02344 0,-0.01289 -0.007,-0.02344 -0.01563,-0.02344 -0.0086,0 -0.01563,-0.0102 -0.01563,-0.02266 0,-0.01246 -0.0123,-0.02983 -0.02734,-0.03859 -0.01504,-0.0088 -0.02138,-0.01614 -0.01408,-0.0164 0.0073,-2.61e-4 -0.0018,-0.02597 -0.02017,-0.05714 -0.02184,-0.03702 -0.04398,-0.125017 -0.06388,-0.253906 -0.03791,-0.2456 -0.03806,-0.335927 -2.57e-4,-0.156748 0.08567,0.406043 0.191844,0.608801 0.468692,0.89503 0.466939,0.482761 1.026115,0.742624 1.789848,0.831786 0.496538,0.05797 0.975089,-0.01531 1.357022,-0.207791 0.04167,-0.021 0.07932,-0.03464 0.08366,-0.0303 0.0043,0.0043 -0.05778,0.04087 -0.138039,0.08118 -0.244317,0.122703 -0.586526,0.205547 -0.904206,0.218895 -0.09883,0.0042 -0.212335,0.01044 -0.252236,0.01397 -0.0399,0.0035 -0.07506,0.0041 -0.07813,0.0013 z"
     id="path3770"
     inkscape:connector-curvature="0" /><path
     style="fill:#ffffff;fill-opacity:1;stroke-width:0.015625"
     d="m 48.173715,72.879388 c 0.0037,-2.539453 0.01133,-6.496289 0.01699,-8.792969 l 0.0103,-4.175781 h 0.07697 0.07697 l -0.0095,1.089844 c -0.0052,0.599414 -0.01646,2.355468 -0.02492,3.902343 -0.02831,5.173434 -0.05964,8.679445 -0.09327,10.4375 -0.01936,1.012161 -0.04633,2.066544 -0.05416,2.117188 -0.0033,0.02148 -0.003,-2.038672 6.55e-4,-4.578125 z"
     id="path3772"
     inkscape:connector-curvature="0" /><path
     style="fill:#ffffff;fill-opacity:1;stroke-width:0.015625"
     d="m 48.190684,56.008294 c -0.0057,-2.146289 -0.01491,-4.677539 -0.02053,-5.625 l -0.01023,-1.722656 h 0.09591 0.09591 l 0.0044,0.769531 c 0.01036,1.803286 0.01131,7.094021 0.0016,8.71875 l -0.01056,1.761719 h -0.0731 -0.0731 z"
     id="path3774"
     inkscape:connector-curvature="0" /><path
     style="fill:#ffffff;fill-opacity:1;stroke-width:0.015625"
     d="m 48.166803,45.734857 c 0.0011,-1.60918 0.0075,-2.883594 0.0142,-2.832032 0.0395,0.303095 0.09469,1.252692 0.124557,2.142953 0.01987,0.592403 0.04589,2.310973 0.0464,3.064079 l 3.67e-4,0.550781 h -0.09375 -0.09375 z"
     id="path3776"
     inkscape:connector-curvature="0" /><path
     style="fill:#ffffff;fill-opacity:1;stroke-width:0.015625"
     d="m 48.171769,44.371575 c -6e-6,-0.266406 0.0021,-0.377587 0.0047,-0.247069 0.0026,0.130519 0.0026,0.348488 1.2e-5,0.484375 -0.0026,0.135888 -0.0047,0.0291 -0.0047,-0.237306 z"
     id="path3778"
     inkscape:connector-curvature="0" /><path
     style="fill:#ffffff;fill-opacity:1;stroke-width:0.015625"
     d="m 48.107163,44.309075 c 8.8e-5,-0.05156 0.003,-0.07077 0.0065,-0.04269 0.0035,0.02808 0.0034,0.07027 -1.6e-4,0.09375 -0.0036,0.02348 -0.0064,5.02e-4 -0.0063,-0.05106 z"
     id="path3780"
     inkscape:connector-curvature="0" /><path
     style="fill:#ffffff;fill-opacity:1;stroke-width:0.015625"
     d="m 48.1438,46.867702 c -0.01483,-2.148829 -0.04746,-4.024514 -0.08025,-4.613314 -0.0093,-0.166541 0.006,-0.115199 0.06257,0.210937 l 0.04069,0.234375 -0.0016,2.843085 c -8.95e-4,1.563697 -0.0037,2.845157 -0.0062,2.847689 -0.0025,0.0025 -0.0093,-0.682715 -0.01514,-1.522772 z"
     id="path3782"
     inkscape:connector-curvature="0" /><path
     style="fill:#ffffff;fill-opacity:1;stroke-width:0.015625"
     d="M 47.884472,41.597993 C 47.724047,41.209434 47.396681,40.790311 47.047634,40.5266 46.218719,39.900341 45.148241,39.770403 44.21207,40.182411 c -0.19188,0.08445 -0.330338,0.1747 -0.524162,0.341676 -0.22996,0.198106 -0.508523,0.51316 -0.674739,0.763126 -0.03956,0.0595 -0.07505,0.105055 -0.07886,0.101242 -0.01244,-0.01244 0.149701,-0.27403 0.264628,-0.426936 0.397943,-0.52945 0.946945,-0.866807 1.638476,-1.006829 0.157122,-0.03182 0.222855,-0.03617 0.53835,-0.03565 0.313326,5.12e-4 0.380157,0.0051 0.521557,0.03587 0.577341,0.125582 1.050355,0.378691 1.440467,0.770793 0.150474,0.151241 0.333665,0.384447 0.426727,0.543233 0.07509,0.128122 0.203089,0.454209 0.17829,0.454209 -0.0037,0 -0.02991,-0.05631 -0.05833,-0.125145 z"
     id="path3784"
     inkscape:connector-curvature="0" /><path
     style="fill:#ffffff;fill-opacity:1;stroke-width:0.015625"
     d=""
     id="path3786"
     inkscape:connector-curvature="0" /><path
     style="fill:#ffffff;fill-opacity:1;stroke-width:0.00552427"
     d="m 47.477663,40.864374 c -0.0794,-0.0924 -0.218945,-0.229184 -0.320595,-0.314244 -0.330211,-0.276317 -0.719932,-0.472774 -1.137467,-0.573393 -0.697765,-0.168151 -1.445053,-0.06018 -2.059711,0.297602 -0.03752,0.02184 -0.06937,0.03854 -0.0708,0.03712 -0.0077,-0.0077 0.218014,-0.13514 0.33512,-0.189293 0.475943,-0.220092 0.988174,-0.299623 1.506701,-0.233938 0.677268,0.08579 1.306924,0.434559 1.752698,0.970815 0.0159,0.01912 0.02774,0.03592 0.02633,0.03734 -0.0014,0.0014 -0.01594,-0.01299 -0.03228,-0.03201 z"
     id="path3788"
     inkscape:connector-curvature="0" /><path
     style="fill:#ffffff;fill-opacity:1;stroke-width:0.04419417"
     d="m 26.59058,78.305435 c -0.06804,-1.641734 -0.01556,-33.6958 0.05529,-33.771714 0.0095,-0.01013 0.01719,7.790696 0.01719,17.335164 0,9.544469 -0.0078,17.353579 -0.01724,17.353579 -0.0095,0 -0.03434,-0.412663 -0.05524,-0.917029 z"
     id="path3790"
     inkscape:connector-curvature="0" /><path
     style="fill:#ffffff;fill-opacity:1;stroke-width:0.04419417"
     d="m 26.726608,61.235436 0.0027,-19.113981 0.105938,-0.299174 c 0.122843,-0.346913 0.167413,-0.360308 0.09635,-0.02896 -0.128436,0.598877 -0.146743,2.717285 -0.176993,20.480675 l -0.03078,18.075417 z"
     id="path3792"
     inkscape:connector-curvature="0" /><path
     style="fill:#ffffff;fill-opacity:1;stroke-width:0.04419417"
     d="m 64.007135,61.345921 c 0,-10.37495 0.01173,-18.851814 0.02607,-18.837475 0.03043,0.03043 0.02484,37.650108 -0.0056,37.680547 -0.01126,0.01126 -0.02047,-8.468122 -0.02047,-18.843072 z"
     id="path3794"
     inkscape:connector-curvature="0" /><path
     style="fill:#ffffff;fill-opacity:1;stroke-width:0.02209709"
     d="m 63.803338,81.141433 c 0.09474,-0.259457 0.171738,-0.523261 0.203153,-0.696058 0.03584,-0.197135 0.03867,-1.073136 0.04651,-14.379679 0.0046,-7.793367 0.01631,-14.169757 0.02604,-14.169757 0.0097,0 0.02406,1.320024 0.03185,2.933388 0.0078,1.613363 0.01907,3.564812 0.02508,4.336553 0.006,0.771741 0.01594,2.491999 0.02208,3.822796 0.01094,2.372567 0.02233,4.480404 0.04422,8.186971 0.006,1.020885 0.01599,2.989736 0.02212,4.375223 0.0061,1.385487 0.01713,3.103638 0.02443,3.818109 l 0.01327,1.299042 -0.205207,0.225657 c -0.282242,0.310369 -0.273162,0.301497 -0.253538,0.247755 z"
     id="path3796"
     inkscape:connector-curvature="0" /><path
     style="fill:#ffffff;fill-opacity:1;stroke-width:0.02209709"
     d="m 60.987145,82.708585 c -0.03038,-0.0052 -0.129821,-0.0203 -0.220971,-0.03356 -0.232962,-0.0339 -0.595593,-0.155199 -0.847653,-0.28353 -0.50443,-0.256822 -0.864099,-0.599132 -0.961594,-0.915187 -0.229001,-0.742364 -0.32547,-3.432594 -0.400274,-11.162442 -0.03329,-3.439854 -0.109944,-15.687379 -0.110468,-17.650049 l -2.05e-4,-0.767873 h 2.759721 2.759722 l 0.01669,0.436417 c 0.02231,0.583276 -0.0056,20.456981 -0.03323,23.693601 -0.02368,2.77058 -0.05772,4.540329 -0.09071,4.716502 -0.01151,0.06144 -0.0594,0.191261 -0.106433,0.288489 -0.323705,0.669179 -1.119022,1.338235 -1.909369,1.606246 -0.181944,0.0617 -0.234769,0.06959 -0.501668,0.0749 -0.164071,0.0033 -0.32317,0.0017 -0.353553,-0.0035 z"
     id="path3798"
     inkscape:connector-curvature="0" /><path
     style="fill:#ffffff;fill-opacity:1;stroke-width:0.02209709"
     d="m 63.8254,80.917953 c 0.04775,-0.117992 0.05882,-0.215008 0.07786,-0.6825 0.01138,-0.279529 0.03168,-1.666673 0.04511,-3.082544 0.01343,-1.415871 0.03219,-3.35489 0.0417,-4.308932 0.01314,-1.31918 0.01662,-0.615312 0.01451,2.938913 -0.0015,2.570443 -0.0098,4.708336 -0.01843,4.750873 -0.0343,0.169418 -0.1179,0.405969 -0.1469,0.415635 -0.02246,0.0075 -0.02618,-9.72e-4 -0.01385,-0.03145 z"
     id="path3800"
     inkscape:connector-curvature="0" /><path
     style="fill:#ffffff;fill-opacity:1;stroke-width:0.02209709"
     d="m 64.046077,63.994094 c -4e-5,-7.146198 0.0053,-12.023578 0.01177,-10.838621 0.0065,1.184956 0.0065,7.031845 7.3e-5,12.993087 l -0.01177,10.838621 z"
     id="path3802"
     inkscape:connector-curvature="0" /><path
     style="fill:#ffffff;fill-opacity:1;stroke-width:0.01104854"
     d="m 60.435158,82.790548 c -0.500667,-0.105483 -0.996767,-0.428427 -1.33421,-0.868525 -0.115371,-0.150469 -0.245808,-0.378963 -0.227044,-0.397726 0.0023,-0.0023 0.02363,0.02428 0.04743,0.05905 0.299066,0.436855 0.746281,0.800183 1.231919,1.000842 0.302614,0.125036 0.60849,0.193058 0.971342,0.216009 0.128586,0.0081 0.09811,0.0095 -0.220971,0.01025 -0.321689,7.12e-4 -0.382996,-0.0019 -0.468466,-0.0199 z"
     id="path3804"
     inkscape:connector-curvature="0" /><path
     style="fill:#ffffff;fill-opacity:1;stroke-width:0.01104854"
     d="m 60.428537,82.784596 c -0.442271,-0.09497 -0.913133,-0.384762 -1.237147,-0.761408 -0.12997,-0.151083 -0.314518,-0.435568 -0.295132,-0.454954 0.0027,-0.0027 0.02882,0.02859 0.05805,0.06954 0.206777,0.289772 0.525658,0.581848 0.838804,0.768295 0.339281,0.202008 0.691368,0.321821 1.110515,0.377904 l 0.116009,0.01552 -0.25964,2.58e-4 c -0.181388,1.8e-4 -0.281286,-0.0044 -0.331457,-0.01516 z"
     id="path3806"
     inkscape:connector-curvature="0" /><path
     style="fill:#ffffff;fill-opacity:1;stroke-width:0.01104854"
     d="m 60.423013,82.783714 c -0.209966,-0.04414 -0.513557,-0.175351 -0.718155,-0.310393 -0.277612,-0.183233 -0.51004,-0.412389 -0.682172,-0.672569 -0.07787,-0.117695 -0.135886,-0.22306 -0.127466,-0.23148 0.0029,-0.0029 0.0478,0.05078 0.09984,0.11922 0.450746,0.592742 1.115826,0.983161 1.847796,1.084703 0.06684,0.0093 0.133963,0.01882 0.149155,0.02121 0.01519,0.0024 -0.08922,0.0046 -0.232019,0.005 -0.188171,4.38e-4 -0.28093,-0.0039 -0.336981,-0.01565 z"
     id="path3808"
     inkscape:connector-curvature="0" /><path
     style="fill:#ffffff;fill-opacity:1;stroke-width:0.01104854"
     d=""
     id="path3810"
     inkscape:connector-curvature="0" /><path
     style="fill:#ffffff;fill-opacity:1;stroke-width:0.01104854"
     d="m 61.089123,82.795971 c -0.0018,-0.0016 -0.04297,-0.0061 -0.09159,-0.0099 -0.716578,-0.05596 -1.437561,-0.428515 -1.903116,-0.983395 -0.08991,-0.107159 -0.201631,-0.254791 -0.201631,-0.266436 0,-0.0039 -0.0094,-0.02037 -0.02086,-0.0365 -0.05104,-0.07176 -0.117551,-0.560763 -0.161025,-1.1839 -0.08976,-1.286605 -0.156199,-4.225959 -0.177427,-7.84999 -0.0034,-0.577286 -0.0085,-1.068256 -0.01137,-1.091044 -0.0039,-0.03069 -0.0012,-0.04143 0.01029,-0.04143 0.02151,0 0.02562,0.154867 0.03993,1.502602 0.04153,3.911331 0.116577,6.507962 0.221767,7.673214 0.06238,0.690986 0.128695,1.010176 0.246466,1.186259 0.06975,0.104282 0.245391,0.287514 0.37733,0.393633 0.407572,0.327811 0.978234,0.563852 1.513358,0.625964 0.157179,0.01824 0.558782,0.01791 0.673961,-5.64e-4 0.214276,-0.03436 0.553886,-0.170909 0.82852,-0.333122 0.0527,-0.03113 0.09832,-0.05409 0.101378,-0.05102 0.01711,0.01711 -0.467941,0.266674 -0.68683,0.353387 -0.201958,0.08 -0.280473,0.09674 -0.480611,0.102464 -0.100266,0.0029 -0.203236,0.0069 -0.228823,0.009 -0.02559,0.0021 -0.04796,0.0024 -0.04972,7.84e-4 z"
     id="path3812"
     inkscape:connector-curvature="0" /><path
     style="fill:#ffffff;fill-opacity:1;stroke-width:0.01104854"
     d="m 63.433741,81.550434 c 0,-0.0044 0.02512,-0.03918 0.05582,-0.07719 0.09444,-0.116934 0.189295,-0.262059 0.258865,-0.396055 0.03704,-0.07135 0.07216,-0.126145 0.07928,-0.123719 0.007,0.0024 0.02124,-0.0071 0.03158,-0.02108 l 0.0188,-0.02544 -0.0068,0.0299 c -0.0037,0.01644 -0.01256,0.04379 -0.0196,0.06077 -0.007,0.01698 -0.01384,0.0346 -0.0151,0.03916 -0.0013,0.0046 -0.0035,0.01201 -0.005,0.01657 -0.0015,0.0046 -0.0021,0.01202 -0.0014,0.01657 7.2e-4,0.0046 -0.0025,0.0083 -0.0073,0.0083 -0.0047,0 -0.02585,0.03972 -0.04696,0.08827 -0.03512,0.08077 -0.05129,0.101173 -0.1903,0.240157 -0.08355,0.08354 -0.151918,0.148249 -0.151918,0.143804 z"
     id="path3814"
     inkscape:connector-curvature="0" /><path
     style="fill:#ffffff;fill-opacity:1;stroke-width:0.01104854"
     d="m 60.423013,82.783639 c -0.21571,-0.04555 -0.502635,-0.169068 -0.712555,-0.306735 -0.230751,-0.151329 -0.45857,-0.362153 -0.611412,-0.565804 -0.08476,-0.112931 -0.210078,-0.318725 -0.204424,-0.335689 0.0023,-0.0068 0.05127,0.04863 0.108879,0.123265 0.37234,0.482397 0.903492,0.841357 1.477894,0.998784 0.0763,0.02091 0.146587,0.03765 0.156186,0.03719 0.0096,-4.53e-4 -0.03475,-0.01494 -0.09856,-0.03217 -0.447748,-0.120974 -0.873937,-0.353302 -1.199168,-0.6537 -0.115088,-0.106301 -0.226094,-0.2224 -0.226094,-0.236468 0,-0.0053 0.02859,0.0175 0.06353,0.05072 l 0.06353,0.06039 -0.05614,-0.06077 c -0.07209,-0.07803 -0.117546,-0.137698 -0.165248,-0.216914 -0.02104,-0.03494 -0.03825,-0.05928 -0.03825,-0.0541 0,0.01579 0.05615,0.108028 0.09548,0.15686 0.03941,0.04892 0.04865,0.0712 0.0195,0.04701 -0.03664,-0.03041 -0.210731,-0.272132 -0.229157,-0.318184 -0.07297,-0.182368 -0.144336,-0.876109 -0.189384,-1.840957 -0.0516,-1.105285 -0.09036,-2.667411 -0.11635,-4.690107 -0.01551,-1.206671 -0.03468,-3.592862 -0.02892,-3.598626 0.01161,-0.01162 0.02024,0.221285 0.02892,0.781247 l 0.0093,0.602146 -0.0044,-0.69882 -0.0044,-0.698821 h 2.708465 2.708465 l -0.0073,1.604801 c -0.004,0.882641 -0.0094,2.052267 -0.0119,2.59917 -0.004,0.874607 -0.0022,0.787447 0.01541,-0.723679 l 0.01999,-1.718049 -0.0034,3.712311 c -0.0019,2.04177 -0.0063,3.727226 -0.0098,3.745456 -0.0035,0.01823 0.0011,0.0083 0.01011,-0.0221 0.03454,-0.115837 0.0392,-0.304611 0.04256,-1.723573 0.0022,-0.92843 0.0011,-1.138332 -0.0032,-0.602146 -0.0036,0.452714 -0.0077,-0.908328 -0.0092,-3.024538 -0.0018,-2.554815 0.001,-3.847656 0.0084,-3.847656 0.0073,0 0.01197,1.006325 0.01383,2.980345 l 0.0028,2.980345 0.0027,-2.980345 0.0027,-2.980345 h 0.07049 0.07049 l 0.0068,0.654627 c 0.0037,0.360044 0.01193,1.763347 0.01821,3.118451 0.0096,2.076231 0.0229,4.08698 0.0349,5.288418 l 0.0027,0.272379 -0.194475,0.213757 c -0.189346,0.208118 -0.252198,0.273315 -0.252198,0.261606 0,-0.0031 0.0099,-0.03462 0.0221,-0.06995 0.01215,-0.03532 0.02205,-0.06718 0.022,-0.07078 -5.5e-5,-0.0036 -0.02756,0.05026 -0.06111,0.119695 -0.05556,0.114975 -0.07102,0.136425 -0.173122,0.240176 -0.06166,0.06266 -0.114042,0.111992 -0.116404,0.10963 -0.0024,-0.0024 0.01773,-0.03338 0.04465,-0.06892 0.06125,-0.08088 0.128821,-0.187424 0.209148,-0.329794 0.0647,-0.114674 0.118854,-0.171837 0.103018,-0.108744 -0.0043,0.01725 -0.0046,0.02807 -5.64e-4,0.02405 0.009,-0.009 0.105189,-0.326181 0.104433,-0.344271 -2.98e-4,-0.0071 -0.01728,0.03737 -0.03775,0.0989 -0.04022,0.120953 -0.07796,0.203005 -0.09336,0.203005 -0.0053,0 -2.43e-4,-0.03027 0.01127,-0.06727 0.03165,-0.101693 0.0241,-0.104338 -0.01296,-0.0045 -0.05146,0.138578 -0.116592,0.26173 -0.221396,0.418624 -0.330169,0.494269 -0.889102,0.962646 -1.473803,1.235023 -0.06077,0.02831 -0.127887,0.05914 -0.149155,0.06853 -0.03804,0.01678 -0.03813,0.01697 -0.0055,0.01197 0.04499,-0.0069 -0.06611,0.0461 -0.20627,0.09841 -0.164263,0.06131 -0.270901,0.07542 -0.583701,0.07726 -0.148879,8.73e-4 -0.248316,0.0046 -0.220971,0.0082 0.02735,0.0036 -0.06712,0.007 -0.209922,0.0074 -0.189366,5.52e-4 -0.280574,-0.0037 -0.336981,-0.01558 z m 0.47785,-0.01158 c -0.01064,-0.0028 -0.02804,-0.0028 -0.03867,0 -0.01064,0.0028 -0.0019,0.0051 0.01934,0.0051 0.02127,0 0.02997,-0.0023 0.01933,-0.0051 z m -0.07161,-0.01068 c -0.0075,-0.003 -0.02239,-0.0032 -0.03314,-4.09e-4 -0.01075,0.0028 -0.0046,0.0053 0.0136,0.0055 0.01823,2.21e-4 0.02703,-0.0021 0.01955,-0.0051 z m -0.07755,-0.01112 c -0.0076,-0.0031 -0.02003,-0.0031 -0.02762,0 -0.0076,0.0031 -0.0014,0.0056 0.01381,0.0056 0.01519,0 0.02141,-0.0025 0.01381,-0.0056 z m -0.05524,-0.01105 c -0.0076,-0.0031 -0.02002,-0.0031 -0.02762,0 -0.0076,0.0031 -0.0014,0.0056 0.01381,0.0056 0.01519,0 0.02141,-0.0025 0.01381,-0.0056 z m 0.668962,-0.01193 c -0.04681,-0.0021 -0.126355,-0.0021 -0.176777,0 -0.05042,0.0021 -0.01212,0.0037 0.0851,0.0038 0.09723,0 0.138481,-0.0017 0.09168,-0.0037 z m -0.323695,-0.01059 c -0.200721,-0.01368 -0.475143,-0.0687 -0.678218,-0.135983 -0.186659,-0.06184 -0.174924,-0.05838 -0.155947,-0.04599 0.02835,0.0185 0.253991,0.09067 0.375651,0.120139 0.17487,0.04236 0.338458,0.06763 0.430893,0.06656 0.0564,-6.52e-4 0.06522,-0.0022 0.02762,-0.0047 z m 0.613195,-0.008 c 0.08204,-0.01757 0.291354,-0.08327 0.285127,-0.08949 -0.0023,-0.0023 -0.05669,0.01254 -0.120919,0.03292 -0.105202,0.03338 -0.209593,0.0547 -0.318888,0.06511 -0.0242,0.0023 -0.01593,0.0043 0.0221,0.0053 0.03342,8.72e-4 0.09308,-0.0053 0.132583,-0.0138 z M 60.163372,82.51195 c -0.353905,-0.155208 -0.633145,-0.325135 -0.835786,-0.508604 -0.04772,-0.04321 -0.06688,-0.05718 -0.04257,-0.03106 0.108129,0.116213 0.343094,0.28412 0.551297,0.393958 0.134278,0.07084 0.326657,0.159581 0.343635,0.158515 0.0061,-3.87e-4 -0.0014,-0.0061 -0.01657,-0.01281 z m -1.191894,-0.96612 c -0.01302,-0.0224 -0.01617,-0.01523 -0.0055,0.01256 0.0038,0.0099 0.0092,0.01563 0.01206,0.01278 0.0028,-0.0028 -1.04e-4,-0.01425 -0.0066,-0.02534 z m -0.02976,-0.09671 c -0.0041,-0.01619 -0.0095,-0.02731 -0.01212,-0.0247 -0.0026,0.0026 -0.0014,0.01798 0.0027,0.03417 0.0041,0.01619 0.0095,0.02731 0.01212,0.0247 0.0026,-0.0026 0.0014,-0.01798 -0.0027,-0.03417 z m -0.04296,-0.183787 c -0.09937,-0.510769 -0.168971,-1.527104 -0.221282,-3.231002 -0.03473,-1.131211 -0.05275,-2.031253 -0.09414,-4.701155 l -0.0092,-0.591097 0.0049,0.734728 c 0.0027,0.4041 0.0097,1.025581 0.01557,1.381068 0.06038,3.639575 0.140104,5.49064 0.270293,6.275572 0.03038,0.183145 0.05026,0.279626 0.05637,0.273517 0.0023,-0.0023 -0.0078,-0.06606 -0.02251,-0.141631 z m 4.973534,-0.537709 c -0.0028,-0.01075 -0.0053,-0.0046 -0.0055,0.0136 -2.25e-4,0.01823 0.0021,0.02702 0.0051,0.01955 0.003,-0.0075 0.0032,-0.0224 4.09e-4,-0.03315 z m 0.03587,-0.557109 c 0.0064,-0.182366 0.01064,-0.429357 0.0093,-0.548869 -0.0016,-0.142732 -0.0033,-0.169905 -0.0051,-0.07919 -0.0036,0.1848 -0.0251,0.906913 -0.0309,1.038563 l -0.0046,0.104961 0.0098,-0.09194 c 0.0054,-0.05057 0.01506,-0.241155 0.0215,-0.423521 z m 0.06346,0.430531 c -0.0035,-0.0088 -0.0061,-0.0062 -0.0067,0.0067 -4.79e-4,0.01165 0.0021,0.01817 0.0058,0.0145 0.0037,-0.0037 0.0041,-0.0132 8.72e-4,-0.02118 z m -0.04348,-1.701498 c -0.0019,-0.08696 -0.0034,-0.0189 -0.0034,0.151249 -6e-6,0.170148 0.0015,0.241297 0.0034,0.15811 0.0019,-0.08319 0.0019,-0.222398 10e-6,-0.309359 z m 0.01104,-0.846565 c -0.0019,-0.08926 -0.0034,-0.01313 -0.0034,0.169173 5e-6,0.182301 0.0015,0.255329 0.0034,0.162283 0.0018,-0.09304 0.0018,-0.2422 -9e-6,-0.331456 z m 0.01106,-1.071753 c -0.0018,-0.113538 -0.0033,-0.0175 -0.0033,0.213412 4e-6,0.230914 0.0015,0.323809 0.0033,0.206433 0.0018,-0.117377 0.0018,-0.306307 -6e-6,-0.419845 z"
     id="path3816"
     inkscape:connector-curvature="0" /><path
     style="fill:#ffffff;fill-opacity:1;stroke-width:0.01104854"
     d="m 60.424333,82.784593 c -0.239175,-0.04752 -0.55581,-0.191352 -0.796716,-0.361911 -0.280909,-0.198879 -0.533278,-0.477285 -0.700562,-0.772841 -0.06004,-0.106073 -0.03315,-0.0941 0.05985,0.02666 0.04836,0.06279 0.117813,0.144299 0.154345,0.181133 0.03653,0.03683 0.04529,0.04416 0.01947,0.01628 -0.05483,-0.05919 -0.06297,-0.08543 -0.01184,-0.03819 0.02628,0.02428 0.02306,0.01785 -0.01278,-0.02555 -0.02634,-0.0319 -0.05037,-0.05801 -0.0534,-0.05801 -0.003,0 0.0035,0.01 0.01455,0.02217 0.01103,0.01219 0.01766,0.02457 0.01472,0.02751 -0.01437,0.01437 -0.20025,-0.228678 -0.238075,-0.311292 -0.159209,-0.347725 -0.259099,-2.418835 -0.312701,-6.483515 -0.0098,-0.745402 -0.03276,-3.213677 -0.03294,-3.545662 -1.08e-4,-0.200514 0.01513,-0.120143 0.02243,0.118316 l 0.0068,0.223268 0.0019,-0.234781 0.0019,-0.234782 h 2.708495 2.708494 l -0.0057,1.963879 -0.0057,1.963879 0.01369,-1.082758 c 0.01285,-1.016378 0.01361,-0.854524 0.01234,2.640123 -0.0011,3.107107 0.0011,3.71108 0.01322,3.651543 0.01193,-0.05844 0.01424,-0.890789 0.01275,-4.604001 -0.0013,-3.273326 0.0015,-4.532665 0.01027,-4.532665 0.0087,0 0.01287,0.571864 0.0149,2.035694 l 0.0028,2.035695 0.0027,-2.035695 0.0027,-2.035694 h 0.0705 0.0705 l 0.0068,0.577287 c 0.0037,0.317507 0.01181,1.66612 0.01801,2.996917 0.01312,2.82195 0.03039,5.367672 0.03796,5.596087 l 0.0053,0.160204 -0.100597,0.110486 c -0.204658,0.224773 -0.343286,0.37097 -0.347638,0.366618 -0.0025,-0.0025 7.75e-4,-0.01829 0.0072,-0.03516 0.02514,-0.06611 -9.63e-4,-0.03625 -0.04486,0.05134 -0.03706,0.07393 -0.06836,0.114799 -0.157349,0.205412 -0.111582,0.113622 -0.148842,0.139504 -0.0884,0.06141 0.01785,-0.02307 0.04359,-0.05934 0.05718,-0.08061 l 0.02473,-0.03867 -0.02547,0.03228 c -0.01401,0.01775 -0.06496,0.08239 -0.113221,0.143631 -0.308625,0.39162 -0.780405,0.77067 -1.253314,1.006968 -0.09623,0.04808 -0.152862,0.08216 -0.143631,0.08643 0.0084,0.0039 0.0036,0.0048 -0.01073,0.0021 -0.03131,-0.0059 -0.08539,0.01597 -0.06722,0.0272 0.01608,0.0099 -0.198565,0.100334 -0.326652,0.137567 -0.07968,0.02316 -0.140054,0.03119 -0.303834,0.0404 -0.112419,0.0063 -0.242482,0.0098 -0.289029,0.0077 -0.04655,-0.0021 -0.07886,-1.66e-4 -0.07182,0.0043 0.02394,0.01523 -0.501557,0.0074 -0.582486,-0.0087 z m 0.476299,-0.01159 c -0.0037,-0.0037 -0.0132,-0.0041 -0.02118,-8.73e-4 -0.0088,0.0035 -0.0062,0.0061 0.0067,0.0067 0.01165,4.75e-4 0.01817,-0.0021 0.0145,-0.0058 z m -0.07734,-0.01105 c -0.0037,-0.0037 -0.0132,-0.0041 -0.02118,-8.73e-4 -0.0088,0.0035 -0.0062,0.0061 0.0067,0.0067 0.01165,4.75e-4 0.01817,-0.0021 0.0145,-0.0058 z m 0.16872,-0.04903 c -0.03342,-0.0046 -0.07817,-0.0081 -0.09944,-0.0078 -0.03471,5.08e-4 -0.03358,0.0014 0.01105,0.0083 0.02735,0.0043 0.07209,0.0078 0.09944,0.0078 0.04907,1.1e-4 0.04892,-6e-6 -0.01105,-0.0083 z m 0.637751,-7.73e-4 c 0.106367,-0.01852 0.07668,-0.02276 -0.03636,-0.0052 -0.05427,0.0084 -0.08417,0.01582 -0.06644,0.01641 0.01773,5.86e-4 0.06399,-0.0045 0.102802,-0.01122 z m -1.096266,-0.0098 c -0.01215,-0.0052 -0.02955,-0.0095 -0.03867,-0.0095 -0.01045,0 -0.0084,0.0035 0.0055,0.0095 0.01215,0.0052 0.02956,0.0095 0.03867,0.0095 0.01045,0 0.0084,-0.0035 -0.0055,-0.0095 z m 0.215447,-0.02294 c -0.05773,-0.01159 -0.109903,-0.01947 -0.115942,-0.0175 -0.0151,0.0049 0.146753,0.0379 0.187758,0.03827 0.01823,1.66e-4 -0.01409,-0.0092 -0.07182,-0.02077 z m -0.292786,8.37e-4 c -0.01215,-0.0052 -0.02956,-0.0095 -0.03867,-0.0095 -0.01045,0 -0.0084,0.0035 0.0055,0.0095 0.01215,0.0052 0.02956,0.0095 0.03867,0.0095 0.01045,0 0.0084,-0.0035 -0.0055,-0.0095 z m 1.284163,0.0044 c -0.0037,-0.0037 -0.0132,-0.0041 -0.02118,-8.72e-4 -0.0088,0.0035 -0.0062,0.0061 0.0067,0.0067 0.01165,4.75e-4 0.01817,-0.0021 0.0145,-0.0058 z m 0.117632,-0.03324 c 0.02876,-0.0098 0.05038,-0.01973 0.04804,-0.02206 -0.0023,-0.0023 -0.03119,0.0053 -0.06413,0.01701 -0.03293,0.01169 -0.05455,0.02162 -0.04804,0.02206 0.0065,4.42e-4 0.03537,-0.0072 0.06413,-0.01701 z m -1.244584,1.11e-4 c -0.0037,-0.0037 -0.0132,-0.0041 -0.02118,-8.73e-4 -0.0088,0.0035 -0.0062,0.0061 0.0067,0.0067 0.01165,4.75e-4 0.01817,-0.0021 0.0145,-0.0058 z m -0.28519,-0.0085 c -0.0025,-0.0023 -0.05184,-0.02285 -0.109565,-0.0457 -0.308585,-0.12215 -0.621727,-0.314376 -0.856262,-0.525628 -0.04254,-0.03831 -0.05994,-0.05081 -0.03867,-0.02777 0.1046,0.113309 0.3906,0.31875 0.600409,0.43129 0.131661,0.07062 0.437125,0.197462 0.404088,0.167792 z m 0.240996,-0.0025 c -0.0037,-0.0037 -0.0132,-0.0041 -0.02118,-8.73e-4 -0.0088,0.0035 -0.0062,0.0061 0.0067,0.0067 0.01165,4.75e-4 0.01817,-0.0021 0.0145,-0.0058 z m -0.04419,-0.01105 c -0.0037,-0.0037 -0.0132,-0.0041 -0.02118,-8.73e-4 -0.0088,0.0035 -0.0062,0.0061 0.0067,0.0067 0.01165,4.75e-4 0.01817,-0.0021 0.0145,-0.0058 z m -0.05777,-0.01544 c -0.01215,-0.0052 -0.02956,-0.0095 -0.03867,-0.0095 -0.01045,0 -0.0084,0.0035 0.0055,0.0095 0.01215,0.0052 0.02955,0.0095 0.03867,0.0095 0.01045,0 0.0084,-0.0035 -0.0055,-0.0095 z m -0.348029,-0.121534 c -0.0091,-0.0059 -0.02154,-0.01071 -0.02762,-0.01071 -0.0061,0 -0.0036,0.0048 0.0055,0.01071 0.0091,0.0059 0.02154,0.01071 0.02762,0.01071 0.0061,0 0.0036,-0.0048 -0.0055,-0.01071 z m -0.06721,-0.02636 c -0.01123,-0.01039 -0.253196,-0.127927 -0.253196,-0.122987 0,0.0066 0.233146,0.125863 0.247672,0.126679 0.0056,3.1e-4 0.0081,-0.0013 0.0055,-0.0037 z m -0.264244,-0.133562 c 0,-0.0029 -0.01492,-0.01295 -0.03315,-0.02238 -0.04155,-0.02149 -0.04407,-0.01215 -0.0028,0.01025 0.03472,0.01884 0.03591,0.01924 0.03591,0.01213 z m -0.09391,-0.05669 c -0.0283,-0.02181 -0.06077,-0.03969 -0.06077,-0.03346 0,0.0056 0.06914,0.0509 0.07734,0.05065 0.003,-8.8e-5 -0.0044,-0.0078 -0.01657,-0.0172 z m -0.104961,-0.06377 c 0,-0.0023 -0.0348,-0.02956 -0.07734,-0.0606 -0.04254,-0.03104 -0.07734,-0.054 -0.07734,-0.05102 0,0.0048 0.145053,0.1152 0.151918,0.115615 0.0015,8.8e-5 0.0028,-0.0017 0.0028,-0.004 z m -0.165728,-0.12155 c 0,-0.0023 -0.02859,-0.0276 -0.06353,-0.05622 l -0.06353,-0.05203 0.06077,0.05609 c 0.06005,0.05543 0.06629,0.06034 0.06629,0.05215 z m -0.143631,-0.08766 c 0,-0.0019 -0.01616,-0.01806 -0.03591,-0.03591 l -0.03591,-0.03245 0.03245,0.03591 c 0.03025,0.03347 0.03936,0.04099 0.03936,0.03245 z m -0.220971,-0.294853 c -0.01298,-0.01823 -0.02609,-0.03315 -0.02913,-0.03315 -0.003,0 0.0051,0.01492 0.01808,0.03315 0.01298,0.01823 0.02609,0.03315 0.02913,0.03315 0.003,0 -0.0051,-0.01492 -0.01808,-0.03315 z m -0.05143,-0.08334 c -0.0036,-0.0094 -0.0089,-0.01468 -0.01181,-0.01178 -0.0029,0.0029 -0.002,0.01057 0.002,0.01705 0.01089,0.01763 0.01726,0.0142 0.0098,-0.0053 z m -0.0957,-0.283333 c -0.0035,-0.0088 -0.0061,-0.0062 -0.0067,0.0067 -4.8e-4,0.01165 0.0021,0.01817 0.0058,0.0145 0.0037,-0.0037 0.0041,-0.0132 8.73e-4,-0.02118 z m -0.01357,-0.08029 c -0.0042,-0.02818 -0.0099,-0.04898 -0.01271,-0.04622 -0.0028,0.0028 -0.0016,0.02808 0.0027,0.05626 0.0042,0.02818 0.0099,0.04898 0.01271,0.04622 0.0028,-0.0028 0.0016,-0.02808 -0.0027,-0.05626 z m 4.780416,-0.05575 0.01085,-0.0221 -0.01799,0.0221 c -0.0099,0.01215 -0.02287,0.03204 -0.02884,0.04419 l -0.01085,0.0221 0.01799,-0.0221 c 0.0099,-0.01215 0.02287,-0.03204 0.02884,-0.04419 z m -4.799879,-0.04675 c -0.0028,-0.01075 -0.0053,-0.0046 -0.0055,0.0136 -2.26e-4,0.01823 0.0021,0.02703 0.0051,0.01955 0.003,-0.0075 0.0032,-0.0224 4.09e-4,-0.03315 z m 4.83713,-0.01402 c 0.0094,-0.01823 0.01465,-0.03315 0.01162,-0.03315 -0.003,0 -0.01324,0.01492 -0.02266,0.03315 -0.0094,0.01823 -0.01465,0.03315 -0.01162,0.03315 0.003,0 0.01324,-0.01492 0.02267,-0.03315 z m -4.848178,-0.05227 c -0.0028,-0.01075 -0.0053,-0.0046 -0.0055,0.0136 -2.25e-4,0.01823 0.0021,0.02702 0.0051,0.01954 0.003,-0.0075 0.0032,-0.0224 4.1e-4,-0.03314 z m 4.909657,-0.05961 c 0.02799,-0.05486 0.07733,-0.103734 0.08773,-0.0869 0.004,0.0065 0.02345,-0.04104 0.04325,-0.105525 0.0198,-0.06449 0.03396,-0.119292 0.03147,-0.121786 -0.0025,-0.0025 -0.01348,0.02399 -0.02441,0.05886 -0.02399,0.07651 -0.0691,0.168356 -0.08268,0.168356 -0.0054,0 -5.19e-4,-0.03082 0.01089,-0.06848 0.02551,-0.08426 0.01999,-0.09888 -0.0067,-0.01786 -0.01066,0.0323 -0.03574,0.09477 -0.05574,0.138823 -0.03924,0.08645 -0.04169,0.108848 -0.0038,0.03451 z m -4.920746,-0.01794 c -0.0028,-0.01064 -0.0051,-0.0019 -0.0051,0.01933 0,0.02127 0.0023,0.02997 0.0051,0.01933 0.0028,-0.01063 0.0028,-0.02804 0,-0.03867 z m -0.01085,-0.08274 c -0.0026,-0.01374 -0.0049,-0.0051 -0.005,0.01921 -1.22e-4,0.02431 0.002,0.03555 0.0048,0.02499 0.0028,-0.01056 0.0029,-0.03045 2.23e-4,-0.04419 z m -0.01105,-0.08839 c -0.0026,-0.01374 -0.0049,-0.0051 -0.005,0.01921 -1.23e-4,0.02431 0.002,0.03555 0.0048,0.02499 0.0028,-0.01056 0.0029,-0.03045 2.23e-4,-0.04419 z m -0.01107,-0.110614 c -0.0026,-0.01367 -0.0048,-0.0025 -0.0048,0.02486 0,0.02734 0.0022,0.03853 0.0048,0.02486 0.0026,-0.01367 0.0026,-0.03605 0,-0.04972 z m -0.01092,-0.10481 c -0.0025,-0.01679 -0.0047,-0.0057 -0.0048,0.02471 -8.2e-5,0.03038 0.002,0.04412 0.0046,0.03054 0.0026,-0.01359 0.0027,-0.03845 1.51e-4,-0.05524 z m 5.0709,-0.03813 c -0.0035,-0.0088 -0.0061,-0.0062 -0.0067,0.0067 -4.79e-4,0.01165 0.0021,0.01817 0.0058,0.0145 0.0037,-0.0037 0.0041,-0.0132 8.72e-4,-0.02118 z m -5.081949,-0.07235 c -0.0025,-0.01679 -0.0047,-0.0057 -0.0048,0.02471 -8.3e-5,0.03038 0.002,0.04413 0.0046,0.03054 0.0026,-0.01359 0.0027,-0.03845 1.51e-4,-0.05524 z m 5.093609,-0.159985 c -0.0022,-0.03211 -0.0041,-0.0087 -0.0041,0.05211 -3.3e-5,0.06077 0.0018,0.08704 0.0041,0.05837 0.0023,-0.02866 0.0023,-0.07838 5.6e-5,-0.110485 z m -5.104578,0.02192 c -0.0025,-0.01986 -0.0045,-0.0063 -0.0046,0.03019 -6.2e-5,0.03646 0.002,0.05271 0.0045,0.03611 0.0025,-0.0166 0.0026,-0.04643 1.13e-4,-0.06629 z m -0.01106,-0.143829 c -0.0025,-0.01975 -0.0045,-0.0036 -0.0045,0.03591 0,0.0395 0.002,0.05566 0.0045,0.03591 0.0025,-0.01975 0.0025,-0.05207 0,-0.07182 z M 63.906,80.025827 c -0.002,-0.05013 -0.0037,-0.0091 -0.0037,0.09115 0,0.100266 0.0017,0.141284 0.0037,0.09115 0.002,-0.05013 0.002,-0.132168 0,-0.1823 z m -5.1378,0.05524 c -0.0025,-0.01975 -0.0045,-0.0036 -0.0045,0.03591 0,0.0395 0.002,0.05566 0.0045,0.03591 0.0025,-0.01975 0.0025,-0.05207 0,-0.07182 z m -0.01099,-0.171253 c -0.0024,-0.02279 -0.0043,-0.0041 -0.0043,0.04143 0,0.04557 0.002,0.06422 0.0043,0.04143 0.0024,-0.02279 0.0024,-0.06008 0,-0.08286 z m 5.159833,-0.271232 c -0.002,-0.04983 -0.0037,-0.0061 -0.0037,0.09722 1.1e-5,0.103304 0.0017,0.144077 0.0037,0.09061 0.002,-0.05347 0.002,-0.137991 -2.2e-5,-0.187826 z m -5.170826,0.08922 c -0.0023,-0.02599 -0.0043,-0.0075 -0.0043,0.04114 -4e-5,0.04861 0.0019,0.06988 0.0042,0.04725 0.0024,-0.02263 0.0024,-0.0624 7.3e-5,-0.08839 z m -0.01106,-0.210214 c -0.0023,-0.02583 -0.0042,-0.0047 -0.0042,0.04696 0,0.05165 0.0019,0.07278 0.0042,0.04696 0.0023,-0.02583 0.0023,-0.06809 0,-0.09391 z m -0.01102,-0.226495 c -0.0023,-0.02886 -0.0041,-0.0052 -0.0041,0.05248 0,0.05773 0.0019,0.08134 0.0041,0.05248 0.0023,-0.02886 0.0023,-0.0761 0,-0.10496 z m -0.01102,-0.248592 c -0.0022,-0.0319 -0.0041,-0.0058 -0.0041,0.058 0,0.06381 0.0018,0.08991 0.0041,0.05801 0.0022,-0.0319 0.0022,-0.08411 0,-0.11601 z m 5.214564,-0.01105 c -0.0026,-0.01367 -0.0048,-0.0025 -0.0048,0.02486 0,0.02734 0.0022,0.03853 0.0048,0.02486 0.0026,-0.01367 0.0026,-0.03605 0,-0.04972 z M 58.702088,78.77181 c -0.0022,-0.03494 -0.004,-0.0064 -0.004,0.06353 0,0.06988 0.0018,0.09847 0.004,0.06353 0.0022,-0.03494 0.0022,-0.09212 0,-0.127058 z m 5.336544,-0.37565 c -0.0019,-0.08963 -0.0034,-0.0163 -0.0034,0.162966 0,0.179262 0.0015,0.252597 0.0034,0.162966 0.0019,-0.08963 0.0019,-0.236301 0,-0.325932 z m -5.347554,0.0778 c -0.0021,-0.04127 -0.0039,-0.0104 -0.0039,0.06859 -1.9e-5,0.079 0.0017,0.112764 0.0039,0.07504 0.0022,-0.03773 0.0022,-0.102361 3.5e-5,-0.143631 z m -0.01104,-0.325908 c -0.0021,-0.04432 -0.0038,-0.01098 -0.0039,0.07409 -1.7e-5,0.08507 0.0017,0.121337 0.0038,0.08059 0.0021,-0.04075 0.0021,-0.110358 3.1e-5,-0.15468 z m -0.01105,-0.37061 c -0.0021,-0.04709 -0.0038,-0.0086 -0.0038,0.08563 0,0.09419 0.0017,0.13272 0.0038,0.08563 0.0021,-0.04709 0.0021,-0.124158 0,-0.171253 z m -0.01103,-0.397747 c -0.002,-0.05317 -0.0037,-0.0097 -0.0037,0.09668 0,0.106342 0.0017,0.149845 0.0037,0.09667 0.002,-0.05317 0.002,-0.140178 0,-0.193349 z M 58.64691,76.92671 c -0.002,-0.05925 -0.0036,-0.01077 -0.0036,0.107724 0,0.118495 0.0016,0.166971 0.0036,0.107723 0.002,-0.05925 0.002,-0.156199 0,-0.215447 z m -0.01104,-0.486135 c -0.002,-0.06533 -0.0036,-0.01188 -0.0036,0.118771 0,0.130649 0.0016,0.184097 0.0036,0.118772 0.002,-0.06532 0.002,-0.172219 0,-0.237543 z M 58.62482,75.88198 c -0.0019,-0.07409 -0.0035,-0.0104 -0.0035,0.141512 7e-6,0.151918 0.0016,0.212533 0.0035,0.134701 0.0019,-0.07783 0.0019,-0.202127 -1.3e-5,-0.276213 z m 5.336357,-0.242054 c -0.0022,-0.03211 -0.0041,-0.0087 -0.0041,0.05211 -3.3e-5,0.06077 0.0018,0.08704 0.0041,0.05837 0.0023,-0.02866 0.0023,-0.07838 5.5e-5,-0.110485 z m -5.350522,-0.55221 c -0.0046,-0.354291 -0.01078,-0.637368 -0.01365,-0.62906 -0.0069,0.01992 0.0096,1.285739 0.01663,1.278675 0.003,-0.003 0.0017,-0.295324 -0.003,-0.649615 z m -0.01897,-1.227678 c -0.0018,-0.09836 -0.0033,-0.01477 -0.0033,0.185765 5e-6,0.200531 0.0015,0.281008 0.0033,0.178837 0.0018,-0.102171 0.0018,-0.266242 -7e-6,-0.364602 z m -0.01109,-0.651162 c -0.002,-0.05013 -0.0037,-0.0091 -0.0037,0.09115 0,0.100266 0.0017,0.141283 0.0037,0.09115 0.002,-0.05013 0.002,-0.132169 0,-0.1823 z m -0.01106,-1.149591 c -0.002,-0.04984 -0.0037,-0.0061 -0.0037,0.09722 1.3e-5,0.103304 0.0017,0.144077 0.0037,0.09061 0.002,-0.05347 0.002,-0.137991 -2.3e-5,-0.187825 z"
     id="path3818"
     inkscape:connector-curvature="0" /><path
     style="fill:#ffffff;fill-opacity:1;stroke-width:0.02209709"
     d="m 58.461016,41.82314 -10e-4,-0.377321 0.29064,-0.269324 c 0.159852,-0.148127 0.294718,-0.265244 0.299704,-0.260259 0.005,0.005 -0.03024,0.061 -0.07828,0.124465 -0.200394,0.264766 -0.36348,0.607509 -0.457213,0.960887 l -0.05275,0.198874 z"
     id="path3820"
     inkscape:connector-curvature="0" /><path
     style="fill:#ffffff;fill-opacity:1;stroke-width:0.02209709"
     d="m 58.474722,58.314762 c -0.02983,-1.517761 -0.04257,-11.985937 -0.01677,-13.783057 0.03036,-2.115494 0.03974,-2.284465 0.144016,-2.596096 0.162355,-0.485192 0.424992,-0.908166 0.771816,-1.243005 0.419725,-0.40522 0.89099,-0.64083 1.450479,-0.725173 0.506462,-0.07635 1.076658,0.0092 1.513743,0.227221 0.544796,0.271699 1.095812,0.811034 1.349405,1.3208 0.155173,0.311924 0.1896,0.581604 0.231318,1.811961 0.03528,1.04041 0.06407,5.950966 0.06482,11.054068 l 6.86e-4,4.66801 h -2.747539 -2.747538 z"
     id="path3822"
     inkscape:connector-curvature="0" /><path
     style="fill:#ffffff;fill-opacity:1;stroke-width:0.02209709"
     d="m 58.474623,58.535733 c -0.02899,-1.027447 -0.04299,-12.431564 -0.01734,-14.125562 0.02986,-1.971793 0.04121,-2.165336 0.145126,-2.475898 0.512664,-1.532074 1.986873,-2.331138 3.43728,-1.863106 0.787631,0.254162 1.647746,1.131275 1.778259,1.813404 0.08892,0.464758 0.118601,1.444509 0.144112,4.757405 0.01151,1.494868 0.02121,4.898096 0.02155,7.562728 l 6.23e-4,4.844787 H 61.23668 58.489121 Z"
     id="path3824"
     inkscape:connector-curvature="0" /><path
     style="fill:#ffffff;fill-opacity:1;stroke-width:0.02209709"
     d="m 58.474496,58.679364 c -0.02904,-0.742124 -0.04317,-12.811912 -0.01687,-14.412825 0.02961,-1.802618 0.04226,-2.015675 0.137486,-2.315362 0.148363,-0.466908 0.393974,-0.869224 0.746642,-1.223014 0.694206,-0.696414 1.583565,-0.94086 2.554312,-0.702067 0.234142,0.0576 0.661189,0.271211 0.894932,0.447657 0.241346,0.182186 0.577766,0.529725 0.726966,0.750993 0.24441,0.362467 0.31219,0.570343 0.354165,1.086201 0.07742,0.951409 0.110827,4.440076 0.11158,11.650689 l 5.32e-4,5.087855 h -2.74763 -2.747629 z"
     id="path3826"
     inkscape:connector-curvature="0" /><path
     style="fill:#ffffff;fill-opacity:1;stroke-width:0.02209709"
     d="m 64.021829,42.381032 c -0.05701,-0.558718 -0.326426,-1.144528 -0.719153,-1.563713 -0.101408,-0.108239 -0.178232,-0.196799 -0.170721,-0.196799 0.0075,0 0.191405,0.144386 0.408653,0.320857 0.443784,0.360487 0.452275,0.372319 0.489836,0.682564 0.0119,0.09832 0.01881,0.347816 0.01534,0.554424 -0.0057,0.338444 -0.0081,0.358517 -0.02396,0.202667 z"
     id="path3828"
     inkscape:connector-curvature="0" /><path
     style="fill:#999999;fill-opacity:1;stroke-width:0.02209709"
     d="m 63.989141,47.735782 c -0.009,-3.026017 -0.05048,-5.016332 -0.117054,-5.61266 -0.03262,-0.292182 -0.07585,-0.446792 -0.182289,-0.651864 -0.290604,-0.559912 -0.863921,-1.086263 -1.47276,-1.35211 -0.22563,-0.09852 -0.134829,-0.09318 0.105221,0.0062 0.195982,0.08113 0.496012,0.244863 0.509247,0.277914 0.0041,0.01012 0.01567,0.01839 0.02582,0.01839 0.05577,0 0.411882,0.357554 0.594208,0.596622 0.152301,0.199698 0.195061,0.268958 0.307411,0.497918 0.166584,0.33949 0.269807,0.755592 0.268418,1.082023 -3.62e-4,0.08507 -0.0078,1.705896 -0.01661,3.601826 -0.01395,3.015198 -0.01666,3.207636 -0.02162,1.535747 z"
     id="path3830"
     inkscape:connector-curvature="0" /><path
     style="fill:#b3b3b3;fill-opacity:1;stroke-width:0.125"
     d="m 12.124231,19.161564 v -4.6875 h 33.249999 33.25 v 4.6875 4.6875 h -33.25 -33.249999 z"
     id="path3832"
     inkscape:connector-curvature="0" /><path
     style="fill:#b3b3b3;fill-opacity:1;stroke-width:0.125"
     d="m 36.374231,4.9740636 v -3.875 h 8.999999 9 v 3.875 3.875 h -9 -8.999999 z"
     id="path3834"
     inkscape:connector-curvature="0" /><path
     style="fill:#b3b3b3;fill-opacity:1;stroke-width:0.01104854"
     d="M 36.265683,6.2717452 V 3.6753375 h 0.04969 0.04969 l 0.0028,2.5881213 0.0028,2.5881213 9.001801,0.00277 9.0018,0.00277 V 6.2662277 3.6753375 h 0.04419 0.04419 v 2.5964077 2.5964077 h -9.098476 -9.098475 z"
     id="path3836"
     inkscape:connector-curvature="0" /><path
     style="fill:#b3b3b3;fill-opacity:1;stroke-width:0.01104854"
     d="m 48.280352,8.8558853 6.098796,-0.00555 -6.096034,-0.00275 -6.096034,-0.00275 V 4.9723222 1.0998078 h 6.093272 6.093271 v 1.2871553 1.2871553 h 0.04419 0.04419 v 2.5964077 2.5964077 l -6.140228,-0.00275 -6.140228,-0.00275 z"
     id="path3838"
     inkscape:connector-curvature="0" /><path
     style="fill:#b3b3b3;fill-opacity:1;stroke-width:0.01104854"
     d="M 54.373623,2.3869631 V 1.0998078 H 48.280352 42.18708 V 1.044565 0.98932232 h 6.137466 6.137466 v 1.34239808 1.342398 h -0.04419 -0.04419 z"
     id="path3840"
     inkscape:connector-curvature="0" /><path
     style="fill:#b3b3b3;fill-opacity:1;stroke-width:0.03125"
     d="m 36.270368,6.2929192 c 0,-2.2802646 0.0056,-2.59375 0.04669,-2.59375 0.04098,0 0.04769,0.3162518 0.05487,2.5859375 0.0066,2.0740813 0.0097,1.81738 0.01581,-1.296875 l 0.0076,-3.8828125 h 2.909894 c 2.89451,0 2.909809,-3.304e-4 2.893551,-0.0625 -0.0163,-0.0623433 -9.59e-4,-0.0625 6.121355,-0.0625 h 6.1377 v 3.953125 3.953125 h -9.09375 -9.09375 z m 5.025668,2.5390853 c -0.492913,-0.00483 -1.308538,-0.00484 -1.8125,-7.8e-6 -0.503961,0.00483 -0.100668,0.00878 0.896207,0.00879 0.996875,4.4e-6 1.409207,-0.00395 0.916293,-0.00878 z"
     id="path3842"
     inkscape:connector-curvature="0" /><path
     style="fill:#b3b3b3;fill-opacity:1;stroke-width:0.03125"
     d="m 37.700055,1.0819905 c 0.743359,-0.00467 1.959766,-0.00467 2.703125,0 0.743359,0.00467 0.135156,0.00849 -1.351562,0.00849 -1.486719,0 -2.094922,-0.00382 -1.351563,-0.00849 z"
     id="path3844"
     inkscape:connector-curvature="0" /><path
     style="fill:#b3b3b3;fill-opacity:1;stroke-width:0.01104854"
     d="m 40.180979,1.0848391 c 0.148667,-0.012152 0.505714,-0.011757 0.524806,5.805e-4 0.01088,0.00703 -0.09352,0.010167 -0.303835,0.00913 -0.230073,-0.00114 -0.292373,-0.00387 -0.220971,-0.00971 z"
     id="path3846"
     inkscape:connector-curvature="0" /><path
     style="fill:#b3b3b3;fill-opacity:1;stroke-width:0.01104854"
     d="m 36.270979,8.8682215 c -0.0037,-0.00962 -0.0067,-1.1804881 -0.0067,-2.6019387 V 3.6818273 h 0.04966 0.04966 l 0.0029,0.9805582 c 0.0016,0.5393071 0.0041,-0.042304 0.0056,-1.292469 l 0.0027,-2.2730272 1.930732,-0.00504 c 1.061904,-0.00277 2.01738,-0.00821 2.123281,-0.012077 0.134732,-0.00492 0.199568,-0.00328 0.215929,0.00548 0.02786,0.014909 1.490831,0.01109 1.522256,-0.00397 0.01279,-0.00613 0.01934,-0.021948 0.01934,-0.046735 V 0.9970798 l -2.963771,-0.002803 c -1.630075,-0.001542 1.131792,-0.004037 6.137481,-0.005545 l 9.101253,-0.002742 -0.0028,3.9470922 -0.0028,3.9470921 -9.089005,0.00277 c -8.28087,0.00252 -9.089601,0.00121 -9.095713,-0.014714 z"
     id="path3848"
     inkscape:connector-curvature="0" /><path
     style="fill:#b3b3b3;fill-opacity:1;stroke-width:0.01104854"
     d="M 36.26427,2.333905 V 0.99703125 h 2.96101 2.961009 l -1.69e-4,0.0248593 c -9.3e-5,0.013672 -0.0049,0.032317 -0.01065,0.041432 -0.0093,0.014645 -0.27882,0.016573 -2.317263,0.016573 -1.268728,0 -2.571528,0.0045 -2.895113,0.010001 l -0.588334,0.010001 -0.0019,0.6915814 c -0.001,0.3803698 -0.0027,0.7040112 -0.0037,0.7192028 -10e-4,0.015192 -0.0027,0.2824285 -0.0037,0.5938592 l -0.0019,0.5662379 h -0.04972 -0.04972 z"
     id="path3850"
     inkscape:connector-curvature="0" /><path
     style="fill:#b3b3b3;fill-opacity:1;stroke-width:0.01104854"
     d="m 36.270979,8.8682215 c -0.0037,-0.00962 -0.0067,-1.1804881 -0.0067,-2.6019387 V 3.6818273 h 0.04961 0.04961 l 0.003,0.5054709 c 0.0016,0.2780089 0.003,-0.1309253 0.0029,-0.9087427 -2.7e-5,-0.7778175 -0.0014,-1.0077653 -0.0029,-0.5109952 l -0.0029,0.9032185 h -0.04965 -0.04965 V 2.3357374 1.0006961 l 2.255738,-0.007357 c 1.240656,-0.004046 5.334977,-0.007357 9.098491,-0.007357 h 6.842753 l -0.0028,3.9470922 -0.0028,3.9470921 -9.089005,0.00277 c -8.28087,0.00252 -9.089601,0.00121 -9.095713,-0.014714 z m 2.084228,-7.7800374 c -0.305354,-0.00163 -0.805025,-0.00163 -1.110379,0 -0.305354,0.00163 -0.05552,0.00297 0.55519,0.00297 0.610708,0 0.860543,-0.00134 0.555189,-0.00297 z m 3.811747,-0.00744 c 0.01064,-0.00481 0.01876,-0.019392 0.01805,-0.032415 -8.78e-4,-0.016202 -0.0028,-0.018062 -0.006,-0.00589 -0.0075,0.028203 -0.09611,0.031663 -0.848945,0.033162 -0.382832,7.622e-4 -0.681142,0.00542 -0.662912,0.01035 0.04232,0.011444 1.473992,0.00648 1.499839,-0.0052 z m -2.154466,-0.0036 c -0.110899,-0.0018 -0.292372,-0.0018 -0.403271,0 -0.1109,0.0018 -0.02016,0.00328 0.201636,0.00328 0.221799,0 0.312535,-0.00147 0.201635,-0.00328 z"
     id="path3852"
     inkscape:connector-curvature="0" /><path
     style="fill:#b3b3b3;fill-opacity:1;stroke-width:0.00390625"
     d="M 38.157761,3.1389325 V 1.0921123 l 0.124023,-0.00109 0.124023,-0.00109 -0.124023,-9.197e-4 -0.124023,-9.197e-4 v -0.046875 -0.046875 l 0.186523,-2.8685e-4 c 0.102588,-1.5777e-4 1.270215,-0.001959 2.594727,-0.004003 1.324511,-0.002044 3.297216,-0.004755 4.383789,-0.006025 l 1.975586,-0.002309 V 3.0837375 5.1857526 H 42.728073 38.157761 Z M 42.112839,1.084631 c 0.02793,-0.00207 0.05362,-0.00487 0.05709,-0.00622 0.008,-0.00313 0.01524,-0.018828 0.01496,-0.032488 -2.07e-4,-0.01 -4.68e-4,-0.00985 -0.0049,0.00286 -0.0034,0.00973 -0.0079,0.014325 -0.01638,0.016724 -0.02025,0.00571 -0.29696,0.010604 -0.607754,0.010741 -0.337746,1.494e-4 -0.863847,0.00444 -0.86126,0.00703 9.38e-4,9.386e-4 0.01105,0.00318 0.02247,0.00498 0.0284,0.00448 1.332116,0.00109 1.395764,-0.00362 z"
     id="path3854"
     inkscape:connector-curvature="0" /><path
     style="fill:#b3b3b3;fill-opacity:1;stroke-width:0.00390625"
     d="M 38.157761,3.1389794 V 1.0922061 l 0.05957,-0.00119 0.05957,-0.00119 -0.05957,-8.669e-4 -0.05957,-8.669e-4 v -0.046875 -0.046875 l 0.129882,-2.1975e-4 c 0.07144,-1.2085e-4 1.087891,-0.001843 2.258789,-0.003826 1.170899,-0.001983 3.169092,-0.004797 4.44043,-0.006252 l 2.311524,-0.002646 V 3.0835773 5.1857526 h -4.570313 -4.570312 z m 3.658203,-2.0510045 c 0.176172,-0.00199 0.327955,-0.00521 0.337296,-0.00715 0.02074,-0.00432 0.02709,-0.010233 0.03001,-0.027936 l 0.0022,-0.01362 -0.0056,0.012128 c -0.0031,0.00667 -0.0098,0.013292 -0.01486,0.014714 -0.01681,0.00472 -0.279511,0.010031 -0.501733,0.01015 -0.388955,2.086e-4 -0.958654,0.00522 -0.958654,0.00844 0,0.00172 0.01802,0.0037 0.04004,0.00439 0.09282,0.00294 0.775306,0.00223 1.071289,-0.00111 z"
     id="path3856"
     inkscape:connector-curvature="0" /><path
     style="fill:#b3b3b3;fill-opacity:1;stroke-width:0.00390625"
     d="m 40.994675,1.0890741 c 0.0897,-5.849e-4 0.236474,-5.849e-4 0.326172,0 0.0897,5.849e-4 0.01631,0.00106 -0.163086,0.00106 -0.179395,0 -0.252784,-4.785e-4 -0.163086,-0.00106 z"
     id="path3858"
     inkscape:connector-curvature="0" /><path
     style="fill:#b3b3b3;fill-opacity:1;stroke-width:0.00390625"
     d="m 40.983255,1.0890735 c 0.113494,-5.756e-4 0.298064,-5.754e-4 0.410156,3e-7 0.112091,5.758e-4 0.01923,0.00105 -0.206354,0.00105 -0.225585,-2e-7 -0.317297,-4.713e-4 -0.203802,-0.00105 z"
     id="path3860"
     inkscape:connector-curvature="0" /><path
     style="fill:#b3b3b3;fill-opacity:1;stroke-width:0.00390625"
     d="M 38.157761,3.1391493 V 1.092546 l 0.0088,-0.00169 0.0088,-0.00169 -0.0088,-5.32e-4 c -0.0086,-5.2e-4 -0.0088,-0.00158 -0.0088,-0.046927 V 0.995312 L 38.72905,0.992891 c 0.314209,-0.001332 1.477441,-0.003304 2.584961,-0.004383 1.107519,-0.001079 2.90708,-0.00307 3.999023,-0.004424 L 47.298386,0.981622 V 3.0836839 5.1857526 H 42.728073 38.157761 Z M 42.14585,1.0808285 c 0.01632,-0.00245 0.02699,-0.00623 0.03027,-0.010724 0.0079,-0.010791 0.006,-0.014045 -0.0043,-0.00732 -0.01502,0.00984 -0.169309,0.012904 -0.799263,0.015872 -0.314746,0.00148 -0.59248,0.00405 -0.617187,0.0057 -0.02471,0.00165 0.272363,0.00238 0.660156,0.00163 0.427414,-8.292e-4 0.715002,-0.00286 0.730277,-0.00515 z"
     id="path3862"
     inkscape:connector-curvature="0" /><path
     style="fill:#b3b3b3;fill-opacity:1;stroke-width:0.00390625"
     d="m 41.507571,1.0803683 c 0.437735,-0.00266 0.569256,-0.0047 0.642377,-0.00994 l 0.02539,-0.00182 -0.01367,0.00651 c -0.01253,0.00597 -0.06032,0.00658 -0.574219,0.00734 l -0.560547,8.372e-4 z"
     id="path3864"
     inkscape:connector-curvature="0" /></svg>